<svg xmlns="http://www.w3.org/2000/svg" width="139.034" height="9.375" viewBox="0 0 139.034 9.375">
  <g id="Grupo_53843" data-name="Grupo 53843" transform="translate(-528.844 -1393.958)">
    <path id="Trazado_100596" data-name="Trazado 100596" d="M536.846,1395.331a4.687,4.687,0,1,1-6.629,0A4.686,4.686,0,0,1,536.846,1395.331Z" fill="#42e0e6"/>
    <path id="Trazado_100597" data-name="Trazado 100597" d="M569.257,1395.331a4.687,4.687,0,1,1-6.629,0A4.686,4.686,0,0,1,569.257,1395.331Z" fill="#42e0e6"/>
    <path id="Trazado_100598" data-name="Trazado 100598" d="M601.668,1395.331a4.687,4.687,0,1,1-6.628,0A4.686,4.686,0,0,1,601.668,1395.331Z" fill="#42e0e6"/>
    <path id="Trazado_100599" data-name="Trazado 100599" d="M634.08,1395.331a4.687,4.687,0,1,1-6.629,0A4.688,4.688,0,0,1,634.08,1395.331Z" fill="#42e0e6"/>
    <g id="Grupo_53842" data-name="Grupo 53842">
      <path id="Trazado_100600" data-name="Trazado 100600" d="M666.505,1395.331a4.687,4.687,0,1,1-6.629,0A4.686,4.686,0,0,1,666.505,1395.331Z" fill="#42e0e6"/>
    </g>
  </g>
</svg>
